# Blender v3.0.0 OBJ File: 'AHMockup.blend'
# www.blender.org
mtllib AHMockup.mtl
o Cube
v 2.032037 3.452549 1.595369
v 2.032037 -0.055661 1.595369
v 2.032037 3.452549 1.822132
v 2.032037 -0.055661 1.822132
v -2.032037 3.452549 1.595369
v -2.032037 -0.055661 1.595369
v -2.032037 3.452549 1.822132
v -2.032037 -0.055661 1.822132
v 0.854455 5.539955 1.822132
v -0.854455 5.539955 1.822132
v 0.854455 5.539955 1.595369
v -0.854455 5.539955 1.595369
v -0.854455 5.208769 1.822132
v -0.854455 5.208769 1.595369
v 0.854455 5.208769 1.595369
v 0.854455 5.208769 1.822132
v -1.061633 4.330189 1.595369
v 1.061632 4.330189 1.822132
v -1.061633 4.330189 1.822132
v 1.061632 4.330189 1.595369
v -1.249975 4.044979 1.595369
v 1.249975 4.044979 1.822132
v -1.249975 4.044979 1.822132
v 1.249975 4.044979 1.595369
v -0.890099 4.760526 1.822132
v 0.890098 4.760526 1.595369
v -0.890099 4.760526 1.595369
v 0.890098 4.760526 1.822132
v -1.524815 3.748765 1.595369
v 1.524816 3.748765 1.822132
v -1.524815 3.748765 1.822132
v 1.524816 3.748765 1.595369
v -1.955101 0.000000 1.741663
v -1.955101 2.429664 1.741663
v -1.955101 0.000000 -4.414780
v -1.955101 2.429664 -4.414780
v 1.955101 0.000000 1.741663
v 1.955101 2.429664 1.741663
v 1.955101 0.000000 -4.414780
v 1.955101 2.429664 -4.414780
v 0.486018 2.029586 1.822132
v -0.486018 0.032378 1.822132
v -0.486018 2.029586 1.822132
v 0.486018 0.032378 1.822132
v -0.486018 2.029586 1.595369
v -0.486018 0.032378 1.595369
v 0.486018 0.032378 1.595369
v 0.486018 2.029586 1.595369
v -1.955101 0.000000 0.725459
v -1.955101 2.429664 0.725459
v 1.955101 2.429664 0.725459
v 1.955101 0.000000 0.725459
v -2.794909 0.000000 0.725459
v -2.548935 0.000000 -5.008614
v -2.794909 2.429664 0.725459
v -2.548935 2.429664 -5.008614
v 2.548935 0.000000 -5.008614
v 2.548935 2.429664 -5.008614
v 2.794909 2.429664 0.725459
v 2.794909 0.000000 0.725459
v 1.770795 -0.050789 -0.307558
v 1.994678 -0.050789 0.307558
v 1.770795 1.201198 -0.307558
v 1.994678 1.201198 0.307558
v -1.767266 -0.019950 -2.208669
v -2.446085 -0.019950 -2.208669
v -2.446085 1.777060 -2.208669
v -1.767266 -0.019950 -4.005680
v -2.446085 -0.019950 -4.005680
v -2.446085 1.777060 -4.005680
v -2.394457 -0.019950 -2.208669
v -2.394457 1.777060 -2.208669
v -2.394457 -0.019950 -4.005680
v -2.394457 1.777060 -4.005680
v -1.767266 0.143414 -2.208669
v -1.767266 0.178454 -2.208669
v -1.767266 0.470144 -2.208669
v -1.767266 0.505184 -2.208669
v -1.767266 0.796873 -2.208669
v -1.767266 0.831913 -2.208669
v -1.767266 1.123602 -2.208669
v -1.767266 1.158642 -2.208669
v -1.767266 1.450331 -2.208669
v -1.767266 1.485371 -2.208669
v -2.446085 1.485371 -2.208669
v -2.446085 1.450331 -2.208669
v -2.446085 1.158642 -2.208669
v -2.446085 1.123602 -2.208669
v -2.446085 0.831913 -2.208669
v -2.446085 0.796873 -2.208669
v -2.446085 0.505184 -2.208669
v -2.446085 0.470144 -2.208669
v -2.446085 0.178454 -2.208669
v -2.446085 0.143414 -2.208669
v -2.446085 1.485371 -4.005680
v -2.446085 1.450331 -4.005680
v -2.446085 1.158642 -4.005680
v -2.446085 1.123602 -4.005680
v -2.446085 0.831913 -4.005680
v -2.446085 0.796873 -4.005680
v -2.446085 0.505184 -4.005680
v -2.446085 0.470144 -4.005680
v -2.446085 0.178454 -4.005680
v -2.446085 0.143414 -4.005680
v -1.767266 1.485371 -4.005680
v -1.767266 1.450331 -4.005680
v -1.767266 1.158642 -4.005680
v -1.767266 1.123602 -4.005680
v -1.767266 0.831913 -4.005680
v -1.767266 0.796873 -4.005680
v -1.767266 0.505184 -4.005680
v -1.767266 0.470144 -4.005680
v -1.767266 0.178454 -4.005680
v -1.767266 0.143414 -4.005680
v -2.394457 1.485371 -4.005680
v -2.394457 1.450331 -4.005680
v -2.394457 1.158642 -4.005680
v -2.394457 1.123602 -4.005680
v -2.394457 0.831913 -4.005680
v -2.394457 0.796873 -4.005680
v -2.394457 0.505184 -4.005680
v -2.394457 0.470144 -4.005680
v -2.394457 0.178454 -4.005680
v -2.394457 0.143414 -4.005680
v -2.394457 1.485371 -2.208669
v -2.394457 1.450331 -2.208669
v -2.394457 1.158642 -2.208669
v -2.394457 1.123602 -2.208669
v -2.394457 0.831913 -2.208669
v -2.394457 0.796873 -2.208669
v -2.394457 0.505184 -2.208669
v -2.394457 0.470144 -2.208669
v -2.394457 0.178454 -2.208669
v -2.394457 0.143414 -2.208669
v -1.633393 -0.019950 -4.197292
v -1.633392 -0.019950 -4.876111
v -1.633392 1.777060 -4.876111
v 0.163618 -0.019950 -4.197292
v 0.163618 -0.019950 -4.876111
v 0.163618 1.777060 -4.876111
v -1.633393 -0.019950 -4.824483
v -1.633393 1.777060 -4.824483
v 0.163618 -0.019950 -4.824483
v 0.163618 1.777060 -4.824483
v -1.633393 0.143414 -4.197292
v -1.633393 0.178454 -4.197292
v -1.633393 0.470144 -4.197292
v -1.633393 0.505184 -4.197292
v -1.633393 0.796873 -4.197292
v -1.633393 0.831913 -4.197292
v -1.633393 1.123602 -4.197292
v -1.633393 1.158642 -4.197292
v -1.633393 1.450331 -4.197292
v -1.633393 1.485371 -4.197292
v -1.633392 1.485371 -4.876111
v -1.633392 1.450331 -4.876111
v -1.633392 1.158642 -4.876111
v -1.633392 1.123602 -4.876111
v -1.633392 0.831913 -4.876111
v -1.633392 0.796873 -4.876111
v -1.633392 0.505184 -4.876111
v -1.633392 0.470144 -4.876111
v -1.633392 0.178454 -4.876111
v -1.633392 0.143414 -4.876111
v 0.163618 1.485371 -4.876111
v 0.163618 1.450331 -4.876111
v 0.163618 1.158642 -4.876111
v 0.163618 1.123602 -4.876111
v 0.163618 0.831913 -4.876111
v 0.163618 0.796873 -4.876111
v 0.163618 0.505184 -4.876111
v 0.163618 0.470144 -4.876111
v 0.163618 0.178454 -4.876111
v 0.163618 0.143414 -4.876111
v 0.163618 1.485371 -4.197292
v 0.163618 1.450331 -4.197292
v 0.163618 1.158642 -4.197292
v 0.163618 1.123602 -4.197292
v 0.163618 0.831913 -4.197292
v 0.163618 0.796873 -4.197292
v 0.163618 0.505184 -4.197292
v 0.163618 0.470144 -4.197292
v 0.163618 0.178454 -4.197292
v 0.163618 0.143414 -4.197292
v 0.163618 1.485371 -4.824483
v 0.163618 1.450331 -4.824483
v 0.163618 1.158642 -4.824483
v 0.163618 1.123602 -4.824483
v 0.163618 0.831913 -4.824483
v 0.163618 0.796873 -4.824483
v 0.163618 0.505184 -4.824483
v 0.163618 0.470144 -4.824483
v 0.163618 0.178454 -4.824483
v 0.163618 0.143414 -4.824483
v -1.633393 1.485371 -4.824483
v -1.633393 1.450331 -4.824483
v -1.633393 1.158642 -4.824483
v -1.633393 1.123602 -4.824483
v -1.633393 0.831913 -4.824483
v -1.633393 0.796873 -4.824483
v -1.633393 0.505184 -4.824483
v -1.633393 0.470144 -4.824483
v -1.633393 0.178454 -4.824483
v -1.633393 0.143414 -4.824483
v 0.984517 -0.019303 0.363933
v 0.984517 0.731293 0.363933
v 0.984517 -0.019303 -1.346689
v 0.984517 0.731293 -1.346689
v 1.624288 -0.019303 0.363933
v 1.624288 0.731293 0.363933
v 1.624288 -0.019303 -1.346689
v 1.624288 0.731293 -1.346689
v 0.984517 -0.019303 -0.965096
v 0.984517 0.731293 -0.965096
v 1.624288 -0.019303 -0.965096
v 1.624288 0.731293 -0.965096
v 2.135002 0.731293 -1.346689
v 2.135002 -0.019303 -1.346689
v 2.135002 -0.019303 -0.965096
v 2.135002 0.731293 -0.965096
v 1.702512 0.701763 -1.018143
v 1.702512 0.829947 -1.001849
v 1.702512 0.701763 -1.293642
v 1.702512 0.829947 -1.293642
v 2.056778 0.701763 -1.018143
v 2.056778 0.829947 -1.001849
v 2.056778 0.701763 -1.293642
v 2.056778 0.829947 -1.293642
v 1.702512 0.980057 -1.211255
v 1.702512 0.980057 -1.293642
v 2.056778 0.980057 -1.293642
v 2.056778 0.980057 -1.211255
v 1.702512 1.088754 -1.227677
v 1.702512 1.088754 -1.277219
v 2.056778 1.088754 -1.277219
v 2.056778 1.088754 -1.227677
vt 0.625000 0.250000
vt 0.625000 0.000000
vt 0.625000 0.000000
vt 0.625000 0.250000
vt 0.499707 0.904897
vt 0.625000 1.000000
vt 0.375000 1.000000
vt 0.381274 0.904897
vt 0.375000 0.750000
vt 0.381274 0.845103
vt 0.375000 0.000000
vt 0.625000 0.000000
vt 0.625000 0.250000
vt 0.375000 0.250000
vt 0.125000 0.500000
vt 0.375000 0.500000
vt 0.125000 0.750000
vt 0.625000 0.500000
vt 0.625000 0.750000
vt 0.499707 0.404897
vt 0.381274 0.404897
vt 0.381274 0.345103
vt 0.625000 0.500000
vt 0.875000 0.500000
vt 0.875000 0.750000
vt 0.625000 0.750000
vt 0.625000 0.750000
vt 0.625000 0.500000
vt 0.625000 1.000000
vt 0.625000 1.000000
vt 0.625000 1.000000
vt 0.625000 0.750000
vt 0.625000 0.500000
vt 0.625000 0.250000
vt 0.625000 0.000000
vt 0.625000 0.250000
vt 0.625000 0.000000
vt 0.625000 0.000000
vt 0.625000 0.250000
vt 0.625000 0.750000
vt 0.625000 0.500000
vt 0.625000 0.500000
vt 0.625000 0.750000
vt 0.625000 1.000000
vt 0.625000 1.000000
vt 0.625000 1.000000
vt 0.625000 0.750000
vt 0.625000 0.500000
vt 0.625000 0.250000
vt 0.625000 0.000000
vt 0.125000 0.500000
vt 0.125000 0.500000
vt 0.125000 0.708734
vt 0.125000 0.708734
vt 0.625000 0.500000
vt 0.625000 0.500000
vt 0.625000 0.708734
vt 0.625000 0.708734
vt 0.375000 0.708734
vt 0.375000 0.750000
vt 0.625000 0.750000
vt 0.125000 0.750000
vt 0.875000 0.750000
vt 0.875000 0.708734
vt 0.499707 0.345103
vt 0.625000 0.062581
vt 0.625000 0.034236
vt 0.375000 0.034236
vt 0.375000 0.062581
vt 0.499707 0.845103
vt 0.375000 0.687419
vt 0.375000 0.715764
vt 0.625000 0.715764
vt 0.625000 0.687419
vt 0.125000 0.687419
vt 0.125000 0.715764
vt 0.875000 0.715764
vt 0.875000 0.687419
vt 0.875000 0.500000
vt 0.375000 0.500000
vt 0.375000 0.708734
vt 0.375000 0.000000
vt 0.375000 0.041266
vt 0.625000 0.041266
vt 0.625000 0.000000
vt 0.375000 0.041266
vt 0.375000 0.250000
vt 0.625000 0.250000
vt 0.625000 0.041266
vt 0.375000 0.500000
vt 0.875000 0.500000
vt 0.875000 0.708734
vt 0.602273 0.230986
vt 0.625000 0.230986
vt 0.625000 0.250000
vt 0.602273 0.250000
vt 0.625000 0.500000
vt 0.602273 0.500000
vt 0.875000 0.500000
vt 0.875000 0.519014
vt 0.625000 0.519014
vt 0.602273 0.519014
vt 0.375000 0.000000
vt 0.397727 0.000000
vt 0.397727 0.230986
vt 0.375000 0.230986
vt 0.420455 0.000000
vt 0.420455 0.230986
vt 0.443182 0.000000
vt 0.465909 0.000000
vt 0.465909 0.230986
vt 0.443182 0.230986
vt 0.488636 0.000000
vt 0.511364 0.000000
vt 0.511364 0.230986
vt 0.488636 0.230986
vt 0.534091 0.000000
vt 0.556818 0.000000
vt 0.556818 0.230986
vt 0.534091 0.230986
vt 0.579545 0.000000
vt 0.602273 0.000000
vt 0.579545 0.230986
vt 0.375000 0.500000
vt 0.397727 0.500000
vt 0.397727 0.519014
vt 0.375000 0.519014
vt 0.420455 0.500000
vt 0.420455 0.519014
vt 0.443182 0.500000
vt 0.443182 0.519014
vt 0.465909 0.500000
vt 0.465909 0.519014
vt 0.488636 0.500000
vt 0.488636 0.519014
vt 0.511364 0.500000
vt 0.511364 0.519014
vt 0.534091 0.500000
vt 0.534091 0.519014
vt 0.556818 0.500000
vt 0.556818 0.519014
vt 0.579545 0.500000
vt 0.579545 0.519014
vt 0.375000 0.750000
vt 0.397727 0.750000
vt 0.397727 1.000000
vt 0.375000 1.000000
vt 0.420455 0.750000
vt 0.420455 1.000000
vt 0.443182 0.750000
vt 0.465909 0.750000
vt 0.465909 1.000000
vt 0.443182 1.000000
vt 0.488636 0.750000
vt 0.511364 0.750000
vt 0.511364 1.000000
vt 0.488636 1.000000
vt 0.534091 0.750000
vt 0.556818 0.750000
vt 0.556818 1.000000
vt 0.534091 1.000000
vt 0.579545 0.750000
vt 0.602273 0.750000
vt 0.602273 1.000000
vt 0.579545 1.000000
vt 0.375000 0.250000
vt 0.397727 0.250000
vt 0.420455 0.250000
vt 0.443182 0.250000
vt 0.465909 0.250000
vt 0.488636 0.250000
vt 0.511364 0.250000
vt 0.534091 0.250000
vt 0.556818 0.250000
vt 0.579545 0.250000
vt 0.602273 0.230986
vt 0.625000 0.230986
vt 0.625000 0.250000
vt 0.602273 0.250000
vt 0.625000 0.500000
vt 0.602273 0.500000
vt 0.875000 0.500000
vt 0.875000 0.519014
vt 0.625000 0.519014
vt 0.602273 0.519014
vt 0.375000 0.000000
vt 0.397727 0.000000
vt 0.397727 0.230986
vt 0.375000 0.230986
vt 0.420455 0.000000
vt 0.420455 0.230986
vt 0.443182 0.000000
vt 0.465909 0.000000
vt 0.465909 0.230986
vt 0.443182 0.230986
vt 0.488636 0.000000
vt 0.511364 0.000000
vt 0.511364 0.230986
vt 0.488636 0.230986
vt 0.534091 0.000000
vt 0.556818 0.000000
vt 0.556818 0.230986
vt 0.534091 0.230986
vt 0.579545 0.000000
vt 0.602273 0.000000
vt 0.579545 0.230986
vt 0.375000 0.500000
vt 0.397727 0.500000
vt 0.397727 0.519014
vt 0.375000 0.519014
vt 0.420455 0.500000
vt 0.420455 0.519014
vt 0.443182 0.500000
vt 0.443182 0.519014
vt 0.465909 0.500000
vt 0.465909 0.519014
vt 0.488636 0.500000
vt 0.488636 0.519014
vt 0.511364 0.500000
vt 0.511364 0.519014
vt 0.534091 0.500000
vt 0.534091 0.519014
vt 0.556818 0.500000
vt 0.556818 0.519014
vt 0.579545 0.500000
vt 0.579545 0.519014
vt 0.375000 0.750000
vt 0.397727 0.750000
vt 0.397727 1.000000
vt 0.375000 1.000000
vt 0.420455 0.750000
vt 0.420455 1.000000
vt 0.443182 0.750000
vt 0.465909 0.750000
vt 0.465909 1.000000
vt 0.443182 1.000000
vt 0.488636 0.750000
vt 0.511364 0.750000
vt 0.511364 1.000000
vt 0.488636 1.000000
vt 0.534091 0.750000
vt 0.556818 0.750000
vt 0.556818 1.000000
vt 0.534091 1.000000
vt 0.579545 0.750000
vt 0.602273 0.750000
vt 0.602273 1.000000
vt 0.579545 1.000000
vt 0.375000 0.250000
vt 0.397727 0.250000
vt 0.420455 0.250000
vt 0.443182 0.250000
vt 0.465909 0.250000
vt 0.488636 0.250000
vt 0.511364 0.250000
vt 0.534091 0.250000
vt 0.556818 0.250000
vt 0.579545 0.250000
vt 0.375000 0.194232
vt 0.625000 0.194232
vt 0.625000 0.250000
vt 0.375000 0.250000
vt 0.625000 0.500000
vt 0.375000 0.500000
vt 0.375000 0.555768
vt 0.625000 0.555768
vt 0.625000 0.750000
vt 0.375000 0.750000
vt 0.625000 1.000000
vt 0.375000 1.000000
vt 0.875000 0.500000
vt 0.875000 0.555768
vt 0.875000 0.750000
vt 0.625000 0.500000
vt 0.375000 0.500000
vt 0.375000 0.000000
vt 0.625000 0.000000
vt 0.625000 0.555768
vt 0.375000 0.555768
vt 0.000000 0.000000
vt 0.000000 0.000000
vt 0.000000 0.000000
vt 0.000000 0.000000
vt 0.375000 0.000000
vt 0.625000 0.000000
vt 0.625000 0.250000
vt 0.375000 0.250000
vt 0.625000 0.500000
vt 0.375000 0.500000
vt 0.625000 0.750000
vt 0.375000 0.750000
vt 0.625000 1.000000
vt 0.375000 1.000000
vt 0.625000 0.750000
vt 0.625000 0.500000
vt 0.625000 0.500000
vt 0.625000 0.750000
vt 0.625000 0.250000
vt 0.625000 0.000000
vt 0.625000 1.000000
vt 0.875000 0.500000
vt 0.875000 0.750000
vt 0.625000 0.000000
vt 0.625000 0.250000
vt 0.625000 1.000000
vt 0.000000 0.000000
vt 1.000000 0.000000
vt 1.000000 1.000000
vt 0.000000 1.000000
vn -1.0000 0.0000 0.0000
vn -0.0000 0.0000 1.0000
vn 0.0000 -1.0000 0.0000
vn 1.0000 0.0000 0.0000
vn -0.0000 0.0000 -1.0000
vn 0.0000 1.0000 0.0000
vn 0.9969 0.0793 0.0000
vn -0.9969 0.0793 0.0000
vn -0.8345 0.5511 0.0000
vn 0.8345 0.5511 0.0000
vn 0.7331 0.6802 0.0000
vn -0.7331 0.6802 0.0000
vn -0.9289 0.3703 0.0000
vn 0.9289 0.3703 0.0000
vn -0.5043 0.8635 0.0000
vn 0.5043 0.8635 0.0000
vn 0.9991 0.0000 0.0429
vn -0.9991 0.0000 0.0429
vn 0.0000 -0.1261 0.9920
vn 0.0000 0.8128 0.5826
vn 0.0000 0.1494 0.9888
vn 0.0000 0.1494 -0.9888
vn -0.9397 0.0000 0.3420
usemtl Material
s off
f 14/1/1 13/2/1 10/3/1 12/4/1
f 43/5/2 7/6/2 8/7/2 42/8/2
f 42/8/2 8/7/2 4/9/2 44/10/2
f 8/11/1 7/12/1 5/13/1 6/14/1
f 6/15/3 2/16/3 4/9/3 8/17/3
f 2/16/4 1/18/4 3/19/4 4/9/4
f 48/20/5 1/18/5 2/16/5 47/21/5
f 47/21/5 2/16/5 6/14/5 46/22/5
f 11/23/6 12/24/6 10/25/6 9/26/6
f 16/27/4 15/28/4 11/23/4 9/26/4
f 15/28/5 14/1/5 12/4/5 11/23/5
f 13/29/2 16/27/2 9/26/2 10/30/2
f 25/31/2 28/32/2 16/27/2 13/29/2
f 26/33/5 27/34/5 14/1/5 15/28/5
f 28/32/7 26/33/7 15/28/7 16/27/7
f 27/34/8 25/35/8 13/2/8 14/1/8
f 21/36/9 23/37/9 19/38/9 17/39/9
f 22/40/10 24/41/10 20/42/10 18/43/10
f 24/41/5 21/36/5 17/39/5 20/42/5
f 23/44/2 22/40/2 18/43/2 19/45/2
f 31/46/2 30/47/2 22/40/2 23/44/2
f 32/48/5 29/49/5 21/36/5 24/41/5
f 30/47/11 32/48/11 24/41/11 22/40/11
f 29/49/12 31/50/12 23/37/12 21/36/12
f 17/39/13 19/38/13 25/35/13 27/34/13
f 18/43/14 20/42/14 26/33/14 28/32/14
f 20/42/5 17/39/5 27/34/5 26/33/5
f 19/45/2 18/43/2 28/32/2 25/31/2
f 5/13/15 7/12/15 31/50/15 29/49/15
f 3/19/16 1/18/16 32/48/16 30/47/16
f 1/18/5 5/13/5 29/49/5 32/48/5
f 7/6/2 3/19/2 30/47/2 31/46/2
f 35/51/6 54/52/6 53/53/6 49/54/6
f 40/55/3 58/56/3 59/57/3 51/58/3
f 52/59/1 37/60/1 38/61/1 51/58/1
f 49/54/6 33/62/6 37/60/6 52/59/6
f 51/58/3 38/61/3 34/63/3 50/64/3
f 5/13/5 1/18/5 48/20/5 45/65/5
f 45/66/4 43/67/4 42/68/4 46/69/4
f 6/14/5 5/13/5 45/65/5 46/22/5
f 41/70/2 3/19/2 7/6/2 43/5/2
f 47/71/1 44/72/1 41/73/1 48/74/1
f 46/75/6 42/76/6 44/72/6 47/71/6
f 44/10/2 4/9/2 3/19/2 41/70/2
f 41/73/3 43/77/3 45/78/3 48/74/3
f 40/55/3 51/58/3 50/64/3 36/79/3
f 35/51/6 49/54/6 52/59/6 39/80/6
f 51/58/5 59/57/5 60/81/5 52/59/5
f 33/82/4 49/83/4 50/84/4 34/85/4
f 53/86/17 54/87/17 56/88/17 55/89/17
f 54/87/2 57/90/2 58/56/2 56/88/2
f 57/90/18 60/81/18 59/57/18 58/56/18
f 52/59/6 60/81/6 57/90/6 39/80/6
f 36/79/3 56/91/3 58/56/3 40/55/3
f 49/83/5 53/86/5 55/89/5 50/84/5
f 50/64/3 55/92/3 56/91/3 36/79/3
f 39/80/6 57/90/6 54/52/6 35/51/6
f 125/93/2 72/94/2 67/95/2 85/96/2
f 85/96/1 67/95/1 70/97/1 95/98/1
f 70/97/6 67/99/6 72/100/6 74/101/6
f 95/98/5 70/97/5 74/101/5 115/102/5
f 65/103/2 75/104/2 134/105/2 71/106/2
f 75/104/2 76/107/2 133/108/2 134/105/2
f 77/109/2 78/110/2 131/111/2 132/112/2
f 79/113/2 80/114/2 129/115/2 130/116/2
f 81/117/2 82/118/2 127/119/2 128/120/2
f 83/121/2 84/122/2 125/93/2 126/123/2
f 69/124/5 104/125/5 124/126/5 73/127/5
f 104/125/5 103/128/5 123/129/5 124/126/5
f 103/128/5 102/130/5 122/131/5 123/129/5
f 102/130/5 101/132/5 121/133/5 122/131/5
f 101/132/5 100/134/5 120/135/5 121/133/5
f 100/134/5 99/136/5 119/137/5 120/135/5
f 99/136/5 98/138/5 118/139/5 119/137/5
f 98/138/5 97/140/5 117/141/5 118/139/5
f 97/140/5 96/142/5 116/143/5 117/141/5
f 96/142/5 95/98/5 115/102/5 116/143/5
f 68/144/4 114/145/4 75/146/4 65/147/4
f 114/145/4 113/148/4 76/149/4 75/146/4
f 112/150/4 111/151/4 78/152/4 77/153/4
f 110/154/4 109/155/4 80/156/4 79/157/4
f 108/158/4 107/159/4 82/160/4 81/161/4
f 106/162/4 105/163/4 84/164/4 83/165/4
f 73/127/5 124/126/5 114/145/5 68/144/5
f 124/126/5 123/129/5 113/148/5 114/145/5
f 122/131/5 121/133/5 111/151/5 112/150/5
f 120/135/5 119/137/5 109/155/5 110/154/5
f 118/139/5 117/141/5 107/159/5 108/158/5
f 116/143/5 115/102/5 105/163/5 106/162/5
f 66/166/1 94/167/1 104/125/1 69/124/1
f 94/167/1 93/168/1 103/128/1 104/125/1
f 93/168/1 92/169/1 102/130/1 103/128/1
f 92/169/1 91/170/1 101/132/1 102/130/1
f 91/170/1 90/171/1 100/134/1 101/132/1
f 90/171/1 89/172/1 99/136/1 100/134/1
f 89/172/1 88/173/1 98/138/1 99/136/1
f 88/173/1 87/174/1 97/140/1 98/138/1
f 87/174/1 86/175/1 96/142/1 97/140/1
f 86/175/1 85/96/1 95/98/1 96/142/1
f 71/106/2 134/105/2 94/167/2 66/166/2
f 134/105/2 133/108/2 93/168/2 94/167/2
f 133/108/2 132/112/2 92/169/2 93/168/2
f 132/112/2 131/111/2 91/170/2 92/169/2
f 131/111/2 130/116/2 90/171/2 91/170/2
f 130/116/2 129/115/2 89/172/2 90/171/2
f 129/115/2 128/120/2 88/173/2 89/172/2
f 128/120/2 127/119/2 87/174/2 88/173/2
f 127/119/2 126/123/2 86/175/2 87/174/2
f 126/123/2 125/93/2 85/96/2 86/175/2
f 84/164/6 105/163/6 115/102/6 125/93/6
f 83/165/3 126/123/3 116/143/3 106/162/3
f 82/160/6 107/159/6 117/141/6 127/119/6
f 81/161/3 128/120/3 118/139/3 108/158/3
f 80/156/6 109/155/6 119/137/6 129/115/6
f 79/157/3 130/116/3 120/135/3 110/154/3
f 78/152/6 111/151/6 121/133/6 131/111/6
f 77/153/3 132/112/3 122/131/3 112/150/3
f 76/149/6 113/148/6 123/129/6 133/108/6
f 123/129/4 122/131/4 132/112/4 133/108/4
f 121/133/4 120/135/4 130/116/4 131/111/4
f 119/137/4 118/139/4 128/120/4 129/115/4
f 117/141/4 116/143/4 126/123/4 127/119/4
f 72/94/4 125/93/4 115/102/4 74/101/4
f 195/176/1 142/177/1 137/178/1 155/179/1
f 155/179/5 137/178/5 140/180/5 165/181/5
f 140/180/6 137/182/6 142/183/6 144/184/6
f 165/181/4 140/180/4 144/184/4 185/185/4
f 135/186/1 145/187/1 204/188/1 141/189/1
f 145/187/1 146/190/1 203/191/1 204/188/1
f 147/192/1 148/193/1 201/194/1 202/195/1
f 149/196/1 150/197/1 199/198/1 200/199/1
f 151/200/1 152/201/1 197/202/1 198/203/1
f 153/204/1 154/205/1 195/176/1 196/206/1
f 139/207/4 174/208/4 194/209/4 143/210/4
f 174/208/4 173/211/4 193/212/4 194/209/4
f 173/211/4 172/213/4 192/214/4 193/212/4
f 172/213/4 171/215/4 191/216/4 192/214/4
f 171/215/4 170/217/4 190/218/4 191/216/4
f 170/217/4 169/219/4 189/220/4 190/218/4
f 169/219/4 168/221/4 188/222/4 189/220/4
f 168/221/4 167/223/4 187/224/4 188/222/4
f 167/223/4 166/225/4 186/226/4 187/224/4
f 166/225/4 165/181/4 185/185/4 186/226/4
f 138/227/2 184/228/2 145/229/2 135/230/2
f 184/228/2 183/231/2 146/232/2 145/229/2
f 182/233/2 181/234/2 148/235/2 147/236/2
f 180/237/2 179/238/2 150/239/2 149/240/2
f 178/241/2 177/242/2 152/243/2 151/244/2
f 176/245/2 175/246/2 154/247/2 153/248/2
f 143/210/4 194/209/4 184/228/4 138/227/4
f 194/209/4 193/212/4 183/231/4 184/228/4
f 192/214/4 191/216/4 181/234/4 182/233/4
f 190/218/4 189/220/4 179/238/4 180/237/4
f 188/222/4 187/224/4 177/242/4 178/241/4
f 186/226/4 185/185/4 175/246/4 176/245/4
f 136/249/5 164/250/5 174/208/5 139/207/5
f 164/250/5 163/251/5 173/211/5 174/208/5
f 163/251/5 162/252/5 172/213/5 173/211/5
f 162/252/5 161/253/5 171/215/5 172/213/5
f 161/253/5 160/254/5 170/217/5 171/215/5
f 160/254/5 159/255/5 169/219/5 170/217/5
f 159/255/5 158/256/5 168/221/5 169/219/5
f 158/256/5 157/257/5 167/223/5 168/221/5
f 157/257/5 156/258/5 166/225/5 167/223/5
f 156/258/5 155/179/5 165/181/5 166/225/5
f 141/189/1 204/188/1 164/250/1 136/249/1
f 204/188/1 203/191/1 163/251/1 164/250/1
f 203/191/1 202/195/1 162/252/1 163/251/1
f 202/195/1 201/194/1 161/253/1 162/252/1
f 201/194/1 200/199/1 160/254/1 161/253/1
f 200/199/1 199/198/1 159/255/1 160/254/1
f 199/198/1 198/203/1 158/256/1 159/255/1
f 198/203/1 197/202/1 157/257/1 158/256/1
f 197/202/1 196/206/1 156/258/1 157/257/1
f 196/206/1 195/176/1 155/179/1 156/258/1
f 154/247/6 175/246/6 185/185/6 195/176/6
f 153/248/3 196/206/3 186/226/3 176/245/3
f 152/243/6 177/242/6 187/224/6 197/202/6
f 151/244/3 198/203/3 188/222/3 178/241/3
f 150/239/6 179/238/6 189/220/6 199/198/6
f 149/240/3 200/199/3 190/218/3 180/237/3
f 148/235/6 181/234/6 191/216/6 201/194/6
f 147/236/3 202/195/3 192/214/3 182/233/3
f 146/232/6 183/231/6 193/212/6 203/191/6
f 193/212/2 192/214/2 202/195/2 203/191/2
f 191/216/2 190/218/2 200/199/2 201/194/2
f 189/220/2 188/222/2 198/203/2 199/198/2
f 187/224/2 186/226/2 196/206/2 197/202/2
f 142/177/2 195/176/2 185/185/2 144/184/2
f 213/259/1 214/260/1 208/261/1 207/262/1
f 207/262/5 208/261/5 212/263/5 211/264/5
f 215/265/4 216/266/4 210/267/4 209/268/4
f 209/268/2 210/267/2 206/269/2 205/270/2
f 212/263/6 208/271/6 214/272/6 216/266/6
f 216/266/6 214/272/6 206/273/6 210/267/6
f 211/264/5 212/263/5 217/274/5 218/275/5
f 205/276/1 206/277/1 214/260/1 213/259/1
f 218/275/4 217/274/4 220/278/4 219/279/4
f 216/266/2 215/265/2 219/279/2 220/278/2
f 212/263/6 216/266/6 220/278/6 217/274/6
f 215/280/3 211/281/3 218/282/3 219/283/3
f 221/284/1 222/285/1 224/286/1 223/287/1
f 223/287/5 224/286/5 228/288/5 227/289/5
f 227/289/4 228/288/4 226/290/4 225/291/4
f 225/291/19 226/290/19 222/292/19 221/293/19
f 232/294/4 231/295/4 235/296/4 236/297/4
f 228/288/5 224/286/5 230/298/5 231/295/5
f 226/290/4 228/288/4 231/295/4 232/294/4
f 224/286/1 222/285/1 229/299/1 230/298/1
f 222/292/20 226/290/20 232/294/20 229/300/20
f 235/296/6 234/301/6 233/302/6 236/297/6
f 230/298/1 229/299/1 233/303/1 234/304/1
f 229/300/21 232/294/21 236/297/21 233/305/21
f 231/295/22 230/298/22 234/304/22 235/296/22
usemtl maestrostand
f 61/306/23 62/307/23 64/308/23 63/309/23
